# xmcd
#
# Track frame offsets: 
#        150
#        12437
#        26845
#        40156
#        54844
#        68152
#        81320
#        94966
#        112128
#        121527
#        133700
#        146778
#
# Disc length: 2149 seconds
#
# Revision: 0
# Processed by: cddbd v1.5.2PL0 Copyright (c) Steve Scherf et al.
# Submitted via: ExactAudioCopy v0.99pb3
#
DISCID=a608630c
DTITLE=Henry Gray - Lucky Man
DYEAR=1990
DGENRE=Blues
TTITLE0=My Girl Josephine
TTITLE1=Cold Chills
TTITLE2=Gray's Bounce
TTITLE3=Out On The Road
TTITLE4=Lucky, Lucky Man
TTITLE5=I'll Be Up Again Someday
TTITLE6=Mojo Boogie
TTITLE7=Mean Old World
TTITLE8=I'm Talkin' About You
TTITLE9=It Ain't No Use
TTITLE10=Boogie In The Dark
TTITLE11=Finger Snappin' Boogie
EXTD=
EXTT0=
EXTT1=
EXTT2=
EXTT3=
EXTT4=
EXTT5=
EXTT6=
EXTT7=
EXTT8=
EXTT9=
EXTT10=
EXTT11=
PLAYORDER=
